<?xml version="1.0" encoding="utf-8"?>
<!-- Generator: Adobe Illustrator 18.1.1, SVG Export Plug-In . SVG Version: 6.00 Build 0)  -->
<svg version="1.1" id="圖層_1" xmlns="http://www.w3.org/2000/svg" xmlns:xlink="http://www.w3.org/1999/xlink" x="0px" y="0px"
	 viewBox="-362.5 211.1 166.6 22.8" enable-background="new -362.5 211.1 166.6 22.8" xml:space="preserve">
<g>
	<path fill="#FFFFFF" d="M-355.8,225.1c-0.2-0.6-0.6-1.5-1.1-2.4v11h-2.5V225c-0.6,1.8-1.2,3.3-1.9,4.5c-0.2-0.8-0.8-1.9-1.2-2.5
		c1.2-1.9,2.4-5.2,2.9-8.1h-2.3v-2.6h2.5v-5h2.5v5h1.8v2.6h-1.8v0.5c0.6,0.7,2.2,3.1,2.4,3.7L-355.8,225.1z M-348.6,226.3
		c-0.2-0.8-0.7-1.9-1.2-3v10.4h-2.6v-8.6c-0.6,1.7-1.3,3.2-2.1,4.3c-0.3-0.7-0.9-1.8-1.3-2.4c1.3-2,2.6-5.3,3.3-8.1h-1.8v-2.6h1.9
		v-5h2.6v5h2.3v0.7c1.6-1.2,3.4-3.1,4.3-4.9l2.5,0.9c-1.3,2.3-3.3,4.5-5.2,6c-0.4-0.5-1-1.1-1.6-1.5v1.4h-2.3v0.9
		c0.6,0.8,1.8,2.8,2.4,3.8c1.8-1.3,3.6-3.3,4.6-5.3l2.5,1c-1.4,2.5-3.5,4.9-5.7,6.5c-0.3-0.4-0.8-0.9-1.3-1.3L-348.6,226.3z
		 M-339.9,225.6c-1.5,3.6-4,6.3-7.2,8.2c-0.4-0.7-1.2-1.6-1.9-2.2c2.8-1.4,5.3-3.9,6.6-6.9L-339.9,225.6z"/>
	<path fill="#FFFFFF" d="M-331.8,225.1c-0.2-0.6-0.6-1.5-1.1-2.4v11h-2.5V225c-0.6,1.8-1.2,3.3-1.9,4.5c-0.2-0.8-0.8-1.9-1.2-2.5
		c1.2-1.9,2.4-5.2,2.9-8.1h-2.3v-2.6h2.5v-5h2.5v5h1.8v2.6h-1.8v0.5c0.6,0.7,2.2,3.1,2.4,3.7L-331.8,225.1z M-324.6,226.3
		c-0.2-0.8-0.7-1.9-1.2-3v10.4h-2.6v-8.6c-0.6,1.7-1.3,3.2-2.1,4.3c-0.3-0.7-0.9-1.8-1.3-2.4c1.3-2,2.6-5.3,3.3-8.1h-1.8v-2.6h1.9
		v-5h2.6v5h2.3v0.7c1.6-1.2,3.4-3.1,4.3-4.9l2.5,0.9c-1.3,2.3-3.3,4.5-5.2,6c-0.4-0.5-1-1.1-1.6-1.5v1.4h-2.3v0.9
		c0.6,0.8,1.8,2.8,2.4,3.8c1.8-1.3,3.6-3.3,4.6-5.3l2.5,1c-1.4,2.5-3.5,4.9-5.7,6.5c-0.3-0.4-0.8-0.9-1.3-1.3L-324.6,226.3z
		 M-315.9,225.6c-1.5,3.6-4,6.3-7.2,8.2c-0.4-0.7-1.2-1.6-1.9-2.2c2.8-1.4,5.3-3.9,6.6-6.9L-315.9,225.6z"/>
	<path fill="#FFFFFF" d="M-292.2,230.2v2.8h-21.6v-2.8h9.3v-4.8h-6.5v-2.8h6.5v-4.2h-5c-0.7,1.3-1.4,2.5-2.2,3.5
		c-0.6-0.5-1.8-1.3-2.6-1.7c1.9-2,3.4-5.3,4.2-8.6l3,0.6c-0.3,1.2-0.7,2.3-1.1,3.4h3.7v-4.3h3v4.3h8.1v2.8h-8.1v4.2h7.2v2.8h-7.2
		v4.8H-292.2z"/>
	<path fill="#FFFFFF" d="M-285.6,222.9c-1-0.7-3-1.8-4.5-2.6l1.5-2.1c1.3,0.6,3.5,1.7,4.5,2.3L-285.6,222.9z M-289.8,231.5
		c1.3-1.8,3.1-4.8,4.6-7.6l2.1,1.9c-1.3,2.5-2.8,5.3-4.2,7.6L-289.8,231.5z M-284.6,216.3c-0.9-0.7-3-1.8-4.4-2.6l1.6-2.1
		c1.3,0.7,3.4,1.7,4.5,2.4L-284.6,216.3z M-274,221v3h4.9v9.6h-2.7v-0.9h-7.2v1h-2.6V224h4.9v-3h-6.4v-2.7h6.4v-2.8
		c-1.6,0.2-3.2,0.4-4.7,0.6c-0.1-0.7-0.5-1.8-0.8-2.4c4.1-0.4,8.6-1.2,11.2-2.3l2.2,2.3c-1.6,0.6-3.3,1.1-5.2,1.4v3.3h6.1v2.7H-274z
		 M-271.8,226.6h-7.2v3.5h7.2V226.6z"/>
	<path fill="#FFFFFF" d="M-244,229.2v2.9h-21.8v-2.9h9.1v-12.4h-7.8v-3h19.2v3h-8.1v12.4H-244z"/>
	<path fill="#FFFFFF" d="M-234.2,212.3c-0.6,1.7-1.4,3.4-2.3,5v16.4h-2.9v-12c-0.5,0.6-1,1.2-1.5,1.7c-0.3-0.7-1.1-2.3-1.6-3
		c2.2-2.2,4.3-5.6,5.5-9L-234.2,212.3z M-226.6,217.9v2.5h6.2v2.6h-6.2v2.7h6.5v2.6h-6.5v5.3h-2.9v-15.8h-0.9
		c-1,1.8-2.1,3.4-3.1,4.7c-0.5-0.5-1.6-1.5-2.2-2c2.1-2.2,4-5.6,5.1-9l2.8,0.7c-0.3,1-0.7,2-1.2,3h9.3v2.7H-226.6z"/>
	<path fill="#FFFFFF" d="M-203.8,218.1v2.9h6.9c0,0,0,0.8,0,1.2c-0.3,6.6-0.6,9.3-1.4,10.2c-0.6,0.7-1.2,1-2,1.1
		c-0.7,0.1-2,0.1-3.3,0.1c0-0.8-0.4-2-0.9-2.8c1.2,0.1,2.4,0.1,2.9,0.1c0.4,0,0.7-0.1,0.9-0.3c0.5-0.5,0.7-2.4,0.9-6.9h-4
		c-0.4,3.5-1.8,7.3-6.3,10.1c-0.5-0.6-1.4-1.5-2.2-2c5.1-3.2,5.8-7.5,5.8-10.7v-3h-3.5v1.7h-2.3v5.6c0.8-0.3,1.7-0.6,2.5-0.9
		l0.6,2.6c-2.8,1.1-5.9,2.3-8.3,3.2l-0.6-3c0.9-0.2,1.9-0.6,3.1-1v-6.6h-2.6v-2.7h2.6v-5.3h2.8v5.3h2.2v-1.8h6.4
		c-0.2-1-0.6-2.5-1-3.6l2.7-0.6c0.4,1.1,1,2.7,1.2,3.6l-2.5,0.7h7.6v2.7H-203.8z"/>
</g>
</svg>
